<svg
	xmlns="http://www.w3.org/2000/svg"
	fill="none"
	viewBox="0 0 22 22"
	style="width:15px;height:15px"
>
	<path
		fill="#a7a8f8"
		d="M0 3a3 3 0 0 1 3-3h3.264a3 3 0 0 1 3 3v3.264a3 3 0 0 1-3 3H3a3 3 0 0 1-3-3zM0 15.736a3 3 0 0 1 3-3h3.264a3 3 0 0 1 3 3V19a3 3 0 0 1-3 3H3a3 3 0 0 1-3-3z">
	</path>
	<path
		stroke="#a7a8f8"
		d="M13.236 15.736a2.5 2.5 0 0 1 2.5-2.5H19a2.5 2.5 0 0 1 2.5 2.5V19a2.5 2.5 0 0 1-2.5 2.5h-3.264a2.5 2.5 0 0 1-2.5-2.5z">
	</path>
	<path
		fill="#a7a8f8"
		d="M12.736 3a3 3 0 0 1 3-3H19a3 3 0 0 1 3 3v3.264a3 3 0 0 1-3 3h-3.264a3 3 0 0 1-3-3z">
	</path>
</svg>